<svg width="39" height="42" viewBox="0 0 39 42" fill="none" xmlns="http://www.w3.org/2000/svg">
<path d="M13.1439 24.15C12.7039 24.15 12.3239 23.99 12.0039 23.67C11.7039 23.35 11.5539 22.96 11.5539 22.5C11.5539 22.02 11.7039 21.63 12.0039 21.33C12.3239 21.03 12.7039 20.88 13.1439 20.88C13.5839 20.88 13.9539 21.03 14.2539 21.33C14.5739 21.63 14.7339 22.02 14.7339 22.5C14.7339 22.96 14.5739 23.35 14.2539 23.67C13.9539 23.99 13.5839 24.15 13.1439 24.15ZM19.5013 24.15C19.0613 24.15 18.6813 23.99 18.3613 23.67C18.0613 23.35 17.9113 22.96 17.9113 22.5C17.9113 22.02 18.0613 21.63 18.3613 21.33C18.6813 21.03 19.0613 20.88 19.5013 20.88C19.9413 20.88 20.3113 21.03 20.6113 21.33C20.9313 21.63 21.0913 22.02 21.0913 22.5C21.0913 22.96 20.9313 23.35 20.6113 23.67C20.3113 23.99 19.9413 24.15 19.5013 24.15ZM25.8587 24.15C25.4187 24.15 25.0387 23.99 24.7187 23.67C24.4187 23.35 24.2687 22.96 24.2687 22.5C24.2687 22.02 24.4187 21.63 24.7187 21.33C25.0387 21.03 25.4187 20.88 25.8587 20.88C26.2987 20.88 26.6687 21.03 26.9687 21.33C27.2887 21.63 27.4487 22.02 27.4487 22.5C27.4487 22.96 27.2887 23.35 26.9687 23.67C26.6687 23.99 26.2987 24.15 25.8587 24.15Z" fill="white"/>
<circle cx="19.5" cy="22.5" r="19" stroke="white"/>
</svg>
